<svg xmlns="http://www.w3.org/2000/svg" id="Capa_1" data-name="Capa 1" viewBox="0 0 1123.97 196.72"><defs><style>.cls-1,.cls-2{fill:#fff;}.cls-2{opacity:0.6;}</style></defs><title>logo</title><path class="cls-1" d="M179.23,55.34v2.51c0,10-2.5,12.53-12.53,12.53H123.52v147.1c0,10.31-2.5,12.82-12.81,12.82h-3.9c-10.3,0-12.81-2.51-12.81-12.82V70.38H50.55c-10,0-12.54-2.5-12.54-12.53V55.34c0-10,2.51-12.53,12.54-12.53H166.7C176.73,42.81,179.23,45.32,179.23,55.34ZM277,89.08c-20.34,0-35.1,6.68-43.18,17.27V52c0-10-2.51-12.53-12.53-12.53h-3.62c-10,0-12.54,2.5-12.54,12.53V217.76c0,10,2.51,12.54,12.54,12.54h3.62c10,0,12.53-2.51,12.53-12.54V150.91c0-26.46,12.81-35.09,34.26-35.09,20.61,0,29.53,7.52,29.53,25.9v76c0,10,2.5,12.54,12.53,12.54h3.62c10,0,12.54-2.51,12.54-12.54V137.27C326.3,102.17,304.85,89.08,277,89.08Zm96.93-52.44a17.55,17.55,0,1,0,0,35.09,17.47,17.47,0,0,0,17.55-17.54A17.66,17.66,0,0,0,373.93,36.64Zm1.67,55.5H372c-10,0-12.54,2.51-12.54,12.54V217.76c0,10,2.51,12.54,12.54,12.54h3.62c10,0,12.53-2.51,12.53-12.54V104.68C388.13,94.65,385.63,92.14,375.6,92.14ZM482,89.08c-41.78,0-60.72,19.77-60.72,54v74.64c0,10,2.5,12.54,12.53,12.54h3.62c10,0,12.53-2.51,12.53-12.54V143.12c0-17.55,5.85-27.3,32-27.3,26.46,0,31.75,9.75,31.75,27.3v74.64c0,10,2.51,12.54,12.53,12.54h3.63c10,0,12.53-2.51,12.53-12.54V143.12C542.44,108.3,525.45,89.08,482,89.08ZM591.18,39.43h-3.34c-10,0-12.54,2.51-12.54,12.54V217.76c0,10,2.51,12.54,12.54,12.54h3.34c10,0,12.54-2.51,12.54-12.54V52C603.72,41.94,601.21,39.43,591.18,39.43Zm55.71,127.64c-2.79-3.07-5.29-6.41-5.29-9.75,0-3.62,2.5-7,5.57-10l38.71-43.45c8.36-9.47,7.25-11.7-5.29-11.7h-4.73c-12.54,0-17.55,2.23-25.91,11.7l-25.62,29c-8.92,9.75-11.14,15-11.14,23.68,0,8.35,2.22,15.32,11.14,25.62l31.19,36.49c8.36,9.47,13.37,11.7,25.91,11.7h4.73c12.54,0,13.65-2.23,5.29-11.7ZM735.18,36.64a17.55,17.55,0,1,0,0,35.09,17.47,17.47,0,0,0,17.55-17.54A17.66,17.66,0,0,0,735.18,36.64Zm1.68,55.5h-3.62c-10,0-12.54,2.51-12.54,12.54V217.76c0,10,2.51,12.54,12.54,12.54h3.62c10,0,12.53-2.51,12.53-12.54V104.68C749.39,94.65,746.89,92.14,736.86,92.14Zm170.46,57.1v24c0,37.88-20.06,60.16-63.51,60.16-45.4,0-64.06-21.17-64.06-60.16v-24c0-38.16,20.33-60.16,64.06-60.16C888.94,89.08,907.32,110.25,907.32,149.24Zm-28.69,0c0-21.72-6.41-33.42-34.82-33.42-28.69,0-35.37,11.7-35.37,33.42v24c0,21.72,6.68,33.14,35.37,33.14,28.41,0,34.82-11.42,34.82-33.14ZM995.34,89.08c-41.79,0-60.73,19.77-60.73,54v74.64c0,10,2.51,12.54,12.54,12.54h3.62c10,0,12.53-2.51,12.53-12.54V143.12c0-17.55,5.85-27.3,32-27.3,26.45,0,31.75,9.75,31.75,27.3v74.64c0,10,2.51,12.54,12.53,12.54h3.62c10,0,12.54-2.51,12.54-12.54V143.12C1055.78,108.3,1038.79,89.08,995.34,89.08Z" transform="translate(-38.01 -36.64)"/><path class="cls-2" d="M1150.84,132.81c8.92,9.75,11.15,15,11.15,23.68,0,8.35-2.23,15.32-11.15,25.62l-31.19,36.49c-8.36,9.47-13.37,11.7-25.91,11.7H1089c-12.53,0-13.65-2.23-5.29-11.7l44.56-51.53c2.79-3.07,5.29-6.41,5.29-9.75,0-3.62-2.5-7-5.57-10l-38.71-43.45c-8.36-9.47-7.24-11.7,5.29-11.7h4.74c12.53,0,17.54,2.23,25.9,11.7Z" transform="translate(-38.01 -36.64)"/></svg>